<svg xmlns="http://www.w3.org/2000/svg" width="840" height="112" viewBox="0 0 420 56">
  <g transform="translate(4 4) scale(0.5)"><circle cx="48" cy="48" r="42" fill="#eaf0fa" stroke="#111" stroke-width="2"></circle>
<path d="M 35 62 C 32 70, 34 83, 42 84 L 54 84 C 62 83, 64 70, 61 62 Z" fill="#fff" stroke="#111" stroke-width="1.8"></path>
<path d="M 61.5 67 Q 69 67 69 74 Q 69 81 61.5 81" stroke="#111" stroke-width="1.8" fill="none" stroke-linecap="round"></path>
<line x1="35" y1="62" x2="61" y2="62" stroke="#111" stroke-width="1.2"></line>
<ellipse cx="48" cy="62" rx="11" ry="1.8" fill="#3a1f0a"></ellipse>
<g stroke="#111" stroke-width="1.6" fill="none">
  <line x1="48" y1="58" x2="20" y2="36"></line>
  <line x1="48" y1="58" x2="38" y2="36"></line>
  <line x1="48" y1="58" x2="58" y2="36"></line>
  <line x1="48" y1="58" x2="76" y2="36"></line>
  <line x1="58" y1="36" x2="52" y2="18"></line>
  <line x1="58" y1="36" x2="64" y2="18"></line>
</g>
<path d="M 48 58 L 58 36 L 64 18" stroke="#2c7a52" stroke-width="3.4" fill="none" stroke-linecap="round"></path>
<path d="M 64 18 L 61 19.4 L 62.4 23 Z" fill="#2c7a52"></path>
<circle cx="48" cy="58" r="3.2" fill="#d4a02a" stroke="#111" stroke-width="1"></circle>
<circle cx="20" cy="36" r="2.8" fill="#c0362a" stroke="#111" stroke-width="1"></circle>
<circle cx="38" cy="36" r="2.8" fill="#c0362a" stroke="#111" stroke-width="1"></circle>
<circle cx="58" cy="36" r="3.0" fill="#2c7a52" stroke="#111" stroke-width="1.2"></circle>
<circle cx="76" cy="36" r="2.8" fill="#2c7a52" stroke="#111" stroke-width="1"></circle>
<circle cx="52" cy="18" r="2.4" fill="#2c7a52" stroke="#111" stroke-width="0.8"></circle>
<circle cx="64" cy="18" r="2.4" fill="#2c7a52" stroke="#111" stroke-width="0.8"></circle>
<line x1="64" y1="50" x2="68" y2="42" stroke="#1d5a3b" stroke-width="2" stroke-linecap="round"></line>
<path d="M 68 42 L 65.32 41.79 L 66.41 44.21 Z" fill="#1d5a3b"></path>
<g transform="translate(48.275 43.275) scale(1.35)">
  <rect x="0" y="0" width="7" height="7" rx="1.6" fill="#2c7a52" stroke="#111" stroke-width="0.8"></rect>
  <circle cx="2.2" cy="3" r="0.9" fill="#fff"></circle>
  <circle cx="4.8" cy="3" r="0.9" fill="#fff"></circle>
  <line x1="3.5" y1="0" x2="3.5" y2="-1.6" stroke="#111" stroke-width="0.6"></line>
  <circle cx="3.5" cy="-2" r="0.8" fill="#111"></circle>
</g>
<circle cx="78" cy="13" r="7" fill="#fff" stroke="#c0362a" stroke-width="1.6"></circle>
<text x="78" y="16.8" text-anchor="middle" font-family="Times New Roman, Times, serif" font-weight="700" font-size="10.5" fill="#c0362a">?</text></g>
  <text x="62" y="36" font-family="Times New Roman, Times, serif" font-weight="700" font-size="22" fill="#111" letter-spacing="0.2">FlavorReasonBench<tspan fill="#6a4730" font-weight="700">-Coffee</tspan></text>
</svg>